<?xml version="1.0" encoding="UTF-8" standalone="no"?>
<svg
   viewBox="0 0 1967.3309 595.33179"
   version="1.1"
   id="svg4"
   sodipodi:docname="bothq-log.svg"
   inkscape:version="1.1.2 (0a00cf5339, 2022-02-04)"
   width="1967.3309"
   height="595.33179"
   inkscape:export-filename="/home/philipp/Dokumente/FIAE/mittelstufenprojekt/bothq-docs/images/bothq-logo.png"
   inkscape:export-xdpi="200.06802"
   inkscape:export-ydpi="200.06802"
   xmlns:inkscape="http://www.inkscape.org/namespaces/inkscape"
   xmlns:sodipodi="http://sodipodi.sourceforge.net/DTD/sodipodi-0.dtd"
   xmlns:xlink="http://www.w3.org/1999/xlink"
   xmlns="http://www.w3.org/2000/svg"
   xmlns:svg="http://www.w3.org/2000/svg">
  <defs
     id="defs8">
    <rect
       id="SVGID_1_"
       x="78"
       y="31"
       width="172"
       height="172" />
  </defs>
  <sodipodi:namedview
     id="namedview6"
     pagecolor="#ffffff"
     bordercolor="#666666"
     borderopacity="1.0"
     inkscape:pageshadow="2"
     inkscape:pageopacity="0.0"
     inkscape:pagecheckerboard="0"
     showgrid="false"
     inkscape:zoom="0.45254834"
     inkscape:cx="1024.2"
     inkscape:cy="333.66601"
     inkscape:window-width="2560"
     inkscape:window-height="1371"
     inkscape:window-x="1920"
     inkscape:window-y="32"
     inkscape:window-maximized="1"
     inkscape:current-layer="svg4"
     fit-margin-top="0"
     fit-margin-left="0"
     fit-margin-right="0"
     fit-margin-bottom="0" />
  <!--! Font Awesome Free 6.5.1 by @fontawesome - https://fontawesome.com License - https://fontawesome.com/license/free (Icons: CC BY 4.0, Fonts: SIL OFL 1.1, Code: MIT License) Copyright 2023 Fonticons, Inc. -->
  <text
     xml:space="preserve"
     style="font-style:normal;font-weight:normal;font-size:666.667px;line-height:1.25;font-family:sans-serif;letter-spacing:0px;fill:#008080;fill-opacity:1;stroke:none"
     x="-48.000023"
     y="469.99838"
     id="text1905"><tspan
       sodipodi:role="line"
       id="tspan1903"
       x="-48.000023"
       y="469.99838"
       style="font-style:normal;font-variant:normal;font-weight:900;font-stretch:normal;font-size:666.667px;font-family:'Source Sans 3';-inkscape-font-specification:'Source Sans 3 Heavy';fill:#008080">B<tspan
   style="letter-spacing:22px"
   id="tspan39247">   </tspan>t<tspan
   style="letter-spacing:-40px;fill:#4d4d4d"
   id="tspan15541">HQ</tspan></tspan></text>
  <style
     type="text/css"
     id="style28896">
	.st0{clip-path:url(#SVGID_2_);}
	.st1{fill:#5865F2;}
	.st2{fill:#FFFFFF;}
	.st3{fill:none;}
</style>
  <g
     id="g28931"
     transform="matrix(2.6236201,0,0,2.6236201,152.23295,-44.601542)">
    <g
       id="g28910">
	<defs
   id="defs28899">
		<rect
   id="rect28921"
   x="78"
   y="31"
   width="172"
   height="172" />

	</defs>

	<clipPath
   id="SVGID_2_">
		<use
   xlink:href="#SVGID_1_"
   style="overflow:visible"
   id="use28901"
   x="0"
   y="0"
   width="100%"
   height="100%" />

	</clipPath>

	<g
   class="st0"
   clip-path="url(#SVGID_2_)"
   id="g28908">
		<path
   class="st1"
   d="M 78,116.8 C 78,69.4 116.4,31 163.8,31 c 47.4,0 85.8,38.4 85.8,85.8 0,47.4 -38.4,85.8 -85.8,85.8 0,0 0,0 0,0 C 116.4,202.5 78,164.1 78,116.8 c 0,0 0,0 0,0 z"
   id="path28904"
   style="fill:#008080" />

		<path
   class="st2"
   d="m 202.4,81.9 c -7.3,-3.3 -14.9,-5.7 -22.8,-7 -1,1.8 -2.1,4.1 -2.9,6 -8.4,-1.3 -16.9,-1.3 -25.3,0 -0.9,-2.1 -1.9,-4.1 -3,-6 -7.9,1.3 -15.6,3.7 -22.8,7.1 -14.4,21.5 -18.3,42.4 -16.4,63.1 8.5,6.3 17.9,11.1 28,14.1 2.3,-3.1 4.3,-6.3 6,-9.7 -3.3,-1.2 -6.4,-2.7 -9.4,-4.5 0.8,-0.6 1.5,-1.2 2.3,-1.8 17.7,8.4 38.3,8.4 56,0 0.8,0.6 1.5,1.2 2.3,1.8 -3,1.8 -6.2,3.3 -9.5,4.5 1.7,3.4 3.7,6.6 6,9.7 10.1,-3.1 19.6,-7.8 28,-14.1 2.2,-24 -4,-44.8 -16.5,-63.2 z m -56.8,50.4 c -5.5,0 -9.9,-5 -9.9,-11.1 0,-6.1 4.4,-11.2 9.9,-11.2 5.6,0 10,5 10,11.2 -0.1,6.1 -4.4,11.1 -10,11.1 z m 36.8,0 c -5.5,0 -9.9,-5 -9.9,-11.1 0,-6.1 4.4,-11.2 9.9,-11.2 5.6,0 10,5 9.9,11.2 -0.1,6.2 -4.4,11.1 -9.9,11.1 z"
   id="path28906" />

	</g>

</g>
    <rect
       x="64"
       y="17"
       class="st3"
       width="200"
       height="200"
       id="rect28912" />
  </g>
</svg>
