<svg id="mermaid-svg" width="100%" xmlns="http://www.w3.org/2000/svg" style="max-width: 372.43267822265625px;" viewBox="0 0 372.43267822265625 620" role="graphics-document document" aria-roledescription="er" xmlns:xlink="http://www.w3.org/1999/xlink"><style xmlns="http://www.w3.org/1999/xhtml">@import url("https://cdnjs.cloudflare.com/ajax/libs/font-awesome/6.5.2/css/all.min.css");</style><style>#mermaid-svg{font-family:"trebuchet ms",verdana,arial,sans-serif;font-size:16px;fill:#333;}#mermaid-svg .error-icon{fill:hsl(220.5882352941, 100%, 98.3333333333%);}#mermaid-svg .error-text{fill:rgb(8.5000000002, 5.7500000001, 0);stroke:rgb(8.5000000002, 5.7500000001, 0);}#mermaid-svg .edge-thickness-normal{stroke-width:2px;}#mermaid-svg .edge-thickness-thick{stroke-width:3.5px;}#mermaid-svg .edge-pattern-solid{stroke-dasharray:0;}#mermaid-svg .edge-pattern-dashed{stroke-dasharray:3;}#mermaid-svg .edge-pattern-dotted{stroke-dasharray:2;}#mermaid-svg .marker{fill:#0b0b0b;stroke:#0b0b0b;}#mermaid-svg .marker.cross{stroke:#0b0b0b;}#mermaid-svg svg{font-family:"trebuchet ms",verdana,arial,sans-serif;font-size:16px;}#mermaid-svg .entityBox{fill:#fff4dd;stroke:hsl(40.5882352941, 60%, 83.3333333333%);}#mermaid-svg .attributeBoxOdd{fill:#ffffff;stroke:hsl(40.5882352941, 60%, 83.3333333333%);}#mermaid-svg .attributeBoxEven{fill:#f2f2f2;stroke:hsl(40.5882352941, 60%, 83.3333333333%);}#mermaid-svg .relationshipLabelBox{fill:hsl(220.5882352941, 100%, 98.3333333333%);opacity:0.7;background-color:hsl(220.5882352941, 100%, 98.3333333333%);}#mermaid-svg .relationshipLabelBox rect{opacity:0.5;}#mermaid-svg .relationshipLine{stroke:#0b0b0b;}#mermaid-svg .entityTitleText{text-anchor:middle;font-size:18px;fill:#333;}#mermaid-svg #MD_PARENT_START{fill:#f5f5f5!important;stroke:#0b0b0b!important;stroke-width:1;}#mermaid-svg #MD_PARENT_END{fill:#f5f5f5!important;stroke:#0b0b0b!important;stroke-width:1;}#mermaid-svg :root{--mermaid-font-family:"trebuchet ms",verdana,arial,sans-serif;}</style><g/><defs><marker id="MD_PARENT_START" refX="0" refY="7" markerWidth="190" markerHeight="240" orient="auto"><path d="M 18,7 L9,13 L1,7 L9,1 Z"/></marker></defs><defs><marker id="MD_PARENT_END" refX="19" refY="7" markerWidth="20" markerHeight="28" orient="auto"><path d="M 18,7 L9,13 L1,7 L9,1 Z"/></marker></defs><defs><marker id="ONLY_ONE_START" refX="0" refY="9" markerWidth="18" markerHeight="18" orient="auto"><path stroke="gray" fill="none" d="M9,0 L9,18 M15,0 L15,18"/></marker></defs><defs><marker id="ONLY_ONE_END" refX="18" refY="9" markerWidth="18" markerHeight="18" orient="auto"><path stroke="gray" fill="none" d="M3,0 L3,18 M9,0 L9,18"/></marker></defs><defs><marker id="ZERO_OR_ONE_START" refX="0" refY="9" markerWidth="30" markerHeight="18" orient="auto"><circle stroke="gray" fill="white" cx="21" cy="9" r="6"/><path stroke="gray" fill="none" d="M9,0 L9,18"/></marker></defs><defs><marker id="ZERO_OR_ONE_END" refX="30" refY="9" markerWidth="30" markerHeight="18" orient="auto"><circle stroke="gray" fill="white" cx="9" cy="9" r="6"/><path stroke="gray" fill="none" d="M21,0 L21,18"/></marker></defs><defs><marker id="ONE_OR_MORE_START" refX="18" refY="18" markerWidth="45" markerHeight="36" orient="auto"><path stroke="gray" fill="none" d="M0,18 Q 18,0 36,18 Q 18,36 0,18 M42,9 L42,27"/></marker></defs><defs><marker id="ONE_OR_MORE_END" refX="27" refY="18" markerWidth="45" markerHeight="36" orient="auto"><path stroke="gray" fill="none" d="M3,9 L3,27 M9,18 Q27,0 45,18 Q27,36 9,18"/></marker></defs><defs><marker id="ZERO_OR_MORE_START" refX="18" refY="18" markerWidth="57" markerHeight="36" orient="auto"><circle stroke="gray" fill="white" cx="48" cy="18" r="6"/><path stroke="gray" fill="none" d="M0,18 Q18,0 36,18 Q18,36 0,18"/></marker></defs><defs><marker id="ZERO_OR_MORE_END" refX="39" refY="18" markerWidth="57" markerHeight="36" orient="auto"><circle stroke="gray" fill="white" cx="9" cy="18" r="6"/><path stroke="gray" fill="none" d="M21,18 Q39,0 57,18 Q39,36 21,18"/></marker></defs><path class="er relationshipLine" d="M78.448,132L78.448,140.333C78.448,148.667,78.448,165.333,78.448,183.833C78.448,202.333,78.448,222.667,78.448,232.833L78.448,243" marker-end="url(#ZERO_OR_MORE_END)" marker-start="url(#ONLY_ONE_START)" style="stroke: gray; fill: none;"/><path class="er relationshipLine" d="M78.448,377L78.448,387.167C78.448,397.333,78.448,417.667,86.947,436.167C95.446,454.667,112.444,471.333,120.943,479.667L129.442,488" marker-end="url(#ZERO_OR_MORE_END)" marker-start="url(#ONLY_ONE_START)" style="stroke: gray; fill: none;"/><path class="er relationshipLine" d="M294.664,388L294.664,396.333C294.664,404.667,294.664,421.333,286.165,438C277.666,454.667,260.668,471.333,252.169,479.667L243.67,488" marker-end="url(#ZERO_OR_MORE_END)" marker-start="url(#ONLY_ONE_START)" style="stroke: gray; fill: none;"/><g id="entity-USERS-1e82e395-936c-57a7-8ba9-b08f03574b93" transform="translate(26.630096435546875,20 )"><rect class="er entityBox" x="0" y="0" width="103.63583374023438" height="112"/><text class="er entityLabel" id="text-entity-USERS-1e82e395-936c-57a7-8ba9-b08f03574b93" x="0" y="0" transform="translate(51.81791687011719,12)" style="dominant-baseline: middle; text-anchor: middle; font-size: 12px;">USERS</text><rect class="er attributeBoxOdd" x="0" y="24" width="49.054656982421875" height="22"/><text class="er entityLabel" id="text-entity-USERS-1e82e395-936c-57a7-8ba9-b08f03574b93-attr-1-type" x="0" y="0" transform="translate(5,35)" style="dominant-baseline: middle; font-size: 10.2px;">INTEGER</text><rect class="er attributeBoxOdd" x="49.054656982421875" y="24" width="54.5811767578125" height="22"/><text class="er entityLabel" id="text-entity-USERS-1e82e395-936c-57a7-8ba9-b08f03574b93-attr-1-name" x="0" y="0" transform="translate(54.054656982421875,35)" style="dominant-baseline: middle; font-size: 10.2px;">id</text><rect class="er attributeBoxEven" x="0" y="46" width="49.054656982421875" height="22"/><text class="er entityLabel" id="text-entity-USERS-1e82e395-936c-57a7-8ba9-b08f03574b93-attr-2-type" x="0" y="0" transform="translate(5,57)" style="dominant-baseline: middle; font-size: 10.2px;">TEXT</text><rect class="er attributeBoxEven" x="49.054656982421875" y="46" width="54.5811767578125" height="22"/><text class="er entityLabel" id="text-entity-USERS-1e82e395-936c-57a7-8ba9-b08f03574b93-attr-2-name" x="0" y="0" transform="translate(54.054656982421875,57)" style="dominant-baseline: middle; font-size: 10.2px;">username</text><rect class="er attributeBoxOdd" x="0" y="68" width="49.054656982421875" height="22"/><text class="er entityLabel" id="text-entity-USERS-1e82e395-936c-57a7-8ba9-b08f03574b93-attr-3-type" x="0" y="0" transform="translate(5,79)" style="dominant-baseline: middle; font-size: 10.2px;">TEXT</text><rect class="er attributeBoxOdd" x="49.054656982421875" y="68" width="54.5811767578125" height="22"/><text class="er entityLabel" id="text-entity-USERS-1e82e395-936c-57a7-8ba9-b08f03574b93-attr-3-name" x="0" y="0" transform="translate(54.054656982421875,79)" style="dominant-baseline: middle; font-size: 10.2px;">password</text><rect class="er attributeBoxEven" x="0" y="90" width="49.054656982421875" height="22"/><text class="er entityLabel" id="text-entity-USERS-1e82e395-936c-57a7-8ba9-b08f03574b93-attr-4-type" x="0" y="0" transform="translate(5,101)" style="dominant-baseline: middle; font-size: 10.2px;">TEXT</text><rect class="er attributeBoxEven" x="49.054656982421875" y="90" width="54.5811767578125" height="22"/><text class="er entityLabel" id="text-entity-USERS-1e82e395-936c-57a7-8ba9-b08f03574b93-attr-4-name" x="0" y="0" transform="translate(54.054656982421875,101)" style="dominant-baseline: middle; font-size: 10.2px;">roles</text></g><g id="entity-PLUGINS-49576d68-01e9-56f1-9b51-a8f25e6b0905" transform="translate(236.89602661132812,232 )"><rect class="er entityBox" x="0" y="0" width="115.53665161132812" height="156"/><text class="er entityLabel" id="text-entity-PLUGINS-49576d68-01e9-56f1-9b51-a8f25e6b0905" x="0" y="0" transform="translate(57.76832580566406,12)" style="dominant-baseline: middle; text-anchor: middle; font-size: 12px;">PLUGINS</text><rect class="er attributeBoxOdd" x="0" y="24" width="54.614776611328125" height="22"/><text class="er entityLabel" id="text-entity-PLUGINS-49576d68-01e9-56f1-9b51-a8f25e6b0905-attr-1-type" x="0" y="0" transform="translate(5,35)" style="dominant-baseline: middle; font-size: 10.2px;">INTEGER</text><rect class="er attributeBoxOdd" x="54.614776611328125" y="24" width="60.921875" height="22"/><text class="er entityLabel" id="text-entity-PLUGINS-49576d68-01e9-56f1-9b51-a8f25e6b0905-attr-1-name" x="0" y="0" transform="translate(59.614776611328125,35)" style="dominant-baseline: middle; font-size: 10.2px;">id</text><rect class="er attributeBoxEven" x="0" y="46" width="54.614776611328125" height="22"/><text class="er entityLabel" id="text-entity-PLUGINS-49576d68-01e9-56f1-9b51-a8f25e6b0905-attr-2-type" x="0" y="0" transform="translate(5,57)" style="dominant-baseline: middle; font-size: 10.2px;">TEXT</text><rect class="er attributeBoxEven" x="54.614776611328125" y="46" width="60.921875" height="22"/><text class="er entityLabel" id="text-entity-PLUGINS-49576d68-01e9-56f1-9b51-a8f25e6b0905-attr-2-name" x="0" y="0" transform="translate(59.614776611328125,57)" style="dominant-baseline: middle; font-size: 10.2px;">name</text><rect class="er attributeBoxOdd" x="0" y="68" width="54.614776611328125" height="22"/><text class="er entityLabel" id="text-entity-PLUGINS-49576d68-01e9-56f1-9b51-a8f25e6b0905-attr-3-type" x="0" y="0" transform="translate(5,79)" style="dominant-baseline: middle; font-size: 10.2px;">TEXT</text><rect class="er attributeBoxOdd" x="54.614776611328125" y="68" width="60.921875" height="22"/><text class="er entityLabel" id="text-entity-PLUGINS-49576d68-01e9-56f1-9b51-a8f25e6b0905-attr-3-name" x="0" y="0" transform="translate(59.614776611328125,79)" style="dominant-baseline: middle; font-size: 10.2px;">description</text><rect class="er attributeBoxEven" x="0" y="90" width="54.614776611328125" height="22"/><text class="er entityLabel" id="text-entity-PLUGINS-49576d68-01e9-56f1-9b51-a8f25e6b0905-attr-4-type" x="0" y="0" transform="translate(5,101)" style="dominant-baseline: middle; font-size: 10.2px;">BOOLEAN</text><rect class="er attributeBoxEven" x="54.614776611328125" y="90" width="60.921875" height="22"/><text class="er entityLabel" id="text-entity-PLUGINS-49576d68-01e9-56f1-9b51-a8f25e6b0905-attr-4-name" x="0" y="0" transform="translate(59.614776611328125,101)" style="dominant-baseline: middle; font-size: 10.2px;">enabled</text><rect class="er attributeBoxOdd" x="0" y="112" width="54.614776611328125" height="22"/><text class="er entityLabel" id="text-entity-PLUGINS-49576d68-01e9-56f1-9b51-a8f25e6b0905-attr-5-type" x="0" y="0" transform="translate(5,123)" style="dominant-baseline: middle; font-size: 10.2px;">TEXT</text><rect class="er attributeBoxOdd" x="54.614776611328125" y="112" width="60.921875" height="22"/><text class="er entityLabel" id="text-entity-PLUGINS-49576d68-01e9-56f1-9b51-a8f25e6b0905-attr-5-name" x="0" y="0" transform="translate(59.614776611328125,123)" style="dominant-baseline: middle; font-size: 10.2px;">version</text><rect class="er attributeBoxEven" x="0" y="134" width="54.614776611328125" height="22"/><text class="er entityLabel" id="text-entity-PLUGINS-49576d68-01e9-56f1-9b51-a8f25e6b0905-attr-6-type" x="0" y="0" transform="translate(5,145)" style="dominant-baseline: middle; font-size: 10.2px;">DATETIME</text><rect class="er attributeBoxEven" x="54.614776611328125" y="134" width="60.921875" height="22"/><text class="er entityLabel" id="text-entity-PLUGINS-49576d68-01e9-56f1-9b51-a8f25e6b0905-attr-6-name" x="0" y="0" transform="translate(59.614776611328125,145)" style="dominant-baseline: middle; font-size: 10.2px;">created_at</text></g><g id="entity-SERVERS-4e12515c-8a39-5b90-9be4-2ffbfde68dcc" transform="translate(20,243 )"><rect class="er entityBox" x="0" y="0" width="116.89602661132812" height="134"/><text class="er entityLabel" id="text-entity-SERVERS-4e12515c-8a39-5b90-9be4-2ffbfde68dcc" x="0" y="0" transform="translate(58.44801330566406,12)" style="dominant-baseline: middle; text-anchor: middle; font-size: 12px;">SERVERS</text><rect class="er attributeBoxOdd" x="0" y="24" width="54.614776611328125" height="22"/><text class="er entityLabel" id="text-entity-SERVERS-4e12515c-8a39-5b90-9be4-2ffbfde68dcc-attr-1-type" x="0" y="0" transform="translate(5,35)" style="dominant-baseline: middle; font-size: 10.2px;">INTEGER</text><rect class="er attributeBoxOdd" x="54.614776611328125" y="24" width="62.28125" height="22"/><text class="er entityLabel" id="text-entity-SERVERS-4e12515c-8a39-5b90-9be4-2ffbfde68dcc-attr-1-name" x="0" y="0" transform="translate(59.614776611328125,35)" style="dominant-baseline: middle; font-size: 10.2px;">id</text><rect class="er attributeBoxEven" x="0" y="46" width="54.614776611328125" height="22"/><text class="er entityLabel" id="text-entity-SERVERS-4e12515c-8a39-5b90-9be4-2ffbfde68dcc-attr-2-type" x="0" y="0" transform="translate(5,57)" style="dominant-baseline: middle; font-size: 10.2px;">TEXT</text><rect class="er attributeBoxEven" x="54.614776611328125" y="46" width="62.28125" height="22"/><text class="er entityLabel" id="text-entity-SERVERS-4e12515c-8a39-5b90-9be4-2ffbfde68dcc-attr-2-name" x="0" y="0" transform="translate(59.614776611328125,57)" style="dominant-baseline: middle; font-size: 10.2px;">name</text><rect class="er attributeBoxOdd" x="0" y="68" width="54.614776611328125" height="22"/><text class="er entityLabel" id="text-entity-SERVERS-4e12515c-8a39-5b90-9be4-2ffbfde68dcc-attr-3-type" x="0" y="0" transform="translate(5,79)" style="dominant-baseline: middle; font-size: 10.2px;">INTEGER</text><rect class="er attributeBoxOdd" x="54.614776611328125" y="68" width="62.28125" height="22"/><text class="er entityLabel" id="text-entity-SERVERS-4e12515c-8a39-5b90-9be4-2ffbfde68dcc-attr-3-name" x="0" y="0" transform="translate(59.614776611328125,79)" style="dominant-baseline: middle; font-size: 10.2px;">owner_id</text><rect class="er attributeBoxEven" x="0" y="90" width="54.614776611328125" height="22"/><text class="er entityLabel" id="text-entity-SERVERS-4e12515c-8a39-5b90-9be4-2ffbfde68dcc-attr-4-type" x="0" y="0" transform="translate(5,101)" style="dominant-baseline: middle; font-size: 10.2px;">DATETIME</text><rect class="er attributeBoxEven" x="54.614776611328125" y="90" width="62.28125" height="22"/><text class="er entityLabel" id="text-entity-SERVERS-4e12515c-8a39-5b90-9be4-2ffbfde68dcc-attr-4-name" x="0" y="0" transform="translate(59.614776611328125,101)" style="dominant-baseline: middle; font-size: 10.2px;">created_at</text><rect class="er attributeBoxOdd" x="0" y="112" width="54.614776611328125" height="22"/><text class="er entityLabel" id="text-entity-SERVERS-4e12515c-8a39-5b90-9be4-2ffbfde68dcc-attr-5-type" x="0" y="0" transform="translate(5,123)" style="dominant-baseline: middle; font-size: 10.2px;">DATETIME</text><rect class="er attributeBoxOdd" x="54.614776611328125" y="112" width="62.28125" height="22"/><text class="er entityLabel" id="text-entity-SERVERS-4e12515c-8a39-5b90-9be4-2ffbfde68dcc-attr-5-name" x="0" y="0" transform="translate(59.614776611328125,123)" style="dominant-baseline: middle; font-size: 10.2px;">updated_at</text></g><g id="entity-SERVERPLUGINS-e3a073d2-50da-5bd3-84f4-0c9c321cfa72" transform="translate(122.82180786132812,488 )"><rect class="er entityBox" x="0" y="0" width="127.46875" height="112"/><text class="er entityLabel" id="text-entity-SERVERPLUGINS-e3a073d2-50da-5bd3-84f4-0c9c321cfa72" x="0" y="0" transform="translate(63.734375,12)" style="dominant-baseline: middle; text-anchor: middle; font-size: 12px;">SERVER_PLUGINS</text><rect class="er attributeBoxOdd" x="0" y="24" width="52.625" height="22"/><text class="er entityLabel" id="text-entity-SERVERPLUGINS-e3a073d2-50da-5bd3-84f4-0c9c321cfa72-attr-1-type" x="0" y="0" transform="translate(5,35)" style="dominant-baseline: middle; font-size: 10.2px;">INTEGER</text><rect class="er attributeBoxOdd" x="52.625" y="24" width="74.84375" height="22"/><text class="er entityLabel" id="text-entity-SERVERPLUGINS-e3a073d2-50da-5bd3-84f4-0c9c321cfa72-attr-1-name" x="0" y="0" transform="translate(57.625,35)" style="dominant-baseline: middle; font-size: 10.2px;">server_id</text><rect class="er attributeBoxEven" x="0" y="46" width="52.625" height="22"/><text class="er entityLabel" id="text-entity-SERVERPLUGINS-e3a073d2-50da-5bd3-84f4-0c9c321cfa72-attr-2-type" x="0" y="0" transform="translate(5,57)" style="dominant-baseline: middle; font-size: 10.2px;">INTEGER</text><rect class="er attributeBoxEven" x="52.625" y="46" width="74.84375" height="22"/><text class="er entityLabel" id="text-entity-SERVERPLUGINS-e3a073d2-50da-5bd3-84f4-0c9c321cfa72-attr-2-name" x="0" y="0" transform="translate(57.625,57)" style="dominant-baseline: middle; font-size: 10.2px;">plugin_id</text><rect class="er attributeBoxOdd" x="0" y="68" width="52.625" height="22"/><text class="er entityLabel" id="text-entity-SERVERPLUGINS-e3a073d2-50da-5bd3-84f4-0c9c321cfa72-attr-3-type" x="0" y="0" transform="translate(5,79)" style="dominant-baseline: middle; font-size: 10.2px;">BOOLEAN</text><rect class="er attributeBoxOdd" x="52.625" y="68" width="74.84375" height="22"/><text class="er entityLabel" id="text-entity-SERVERPLUGINS-e3a073d2-50da-5bd3-84f4-0c9c321cfa72-attr-3-name" x="0" y="0" transform="translate(57.625,79)" style="dominant-baseline: middle; font-size: 10.2px;">enabled</text><rect class="er attributeBoxEven" x="0" y="90" width="52.625" height="22"/><text class="er entityLabel" id="text-entity-SERVERPLUGINS-e3a073d2-50da-5bd3-84f4-0c9c321cfa72-attr-4-type" x="0" y="0" transform="translate(5,101)" style="dominant-baseline: middle; font-size: 10.2px;">TEXT</text><rect class="er attributeBoxEven" x="52.625" y="90" width="74.84375" height="22"/><text class="er entityLabel" id="text-entity-SERVERPLUGINS-e3a073d2-50da-5bd3-84f4-0c9c321cfa72-attr-4-name" x="0" y="0" transform="translate(57.625,101)" style="dominant-baseline: middle; font-size: 10.2px;">configurations</text></g><rect class="er relationshipLabelBox" x="64.985107421875" y="180.5" width="26.92578125" height="14"/><text class="er relationshipLabel" id="rel1" x="78.447998046875" y="187.5" style="text-anchor: middle; dominant-baseline: middle; font-size: 12px;">owns</text><rect class="er relationshipLabelBox" x="79.5755386352539" y="432.3614501953125" width="17.861328125" height="14"/><text class="er relationshipLabel" id="rel2" x="88.5062026977539" y="439.3614501953125" style="text-anchor: middle; dominant-baseline: middle; font-size: 12px;">has</text><rect class="er relationshipLabelBox" x="278.332763671875" y="437.3434143066406" width="8.421875" height="14"/><text class="er relationshipLabel" id="rel3" x="282.543701171875" y="444.3434143066406" style="text-anchor: middle; dominant-baseline: middle; font-size: 12px;">is</text></svg>