<svg width="782" height="180" viewBox="0 0 782 180" fill="none" xmlns="http://www.w3.org/2000/svg">
<g clip-path="url(#clip0)">
<path d="M408.904 54V30.54H404.926V40.264H396.494V30.54H392.516V54H396.494V43.29H404.926V54H408.904ZM425.594 54V42.474C425.594 38.734 423.146 37.442 419.712 37.442C416.346 37.442 413.558 38.87 413.558 42.576H417.23C417.23 40.978 418.08 40.094 419.712 40.094C421.582 40.094 421.99 41.454 421.99 43.052V44.65C418.318 44.752 412.946 45.262 412.946 50.124C412.946 52.878 415.122 54.374 417.706 54.374C419.474 54.374 421.106 53.796 421.922 52.13H421.99V54H425.594ZM421.99 46.86C421.99 48.934 421.14 51.722 418.624 51.722C417.366 51.722 416.618 51.076 416.618 49.784C416.618 47.336 420.188 46.86 421.99 46.86ZM443.153 54V42.78C443.153 39.992 441.861 37.442 438.767 37.442C436.455 37.442 434.823 38.768 433.973 40.842H433.905V37.816H430.131V54H433.905V46.996C433.905 44.82 434.993 40.978 437.713 40.978C438.087 40.978 438.529 41.012 438.801 41.284C439.447 41.896 439.379 43.97 439.379 44.752V54H443.153ZM460.206 54V30.54H456.432V39.754H456.364C455.514 38.258 454.052 37.442 452.318 37.442C447.83 37.442 446.776 42.338 446.776 45.908C446.776 49.648 447.592 54.374 452.318 54.374C453.814 54.374 455.786 53.184 456.364 51.756H456.432V54H460.206ZM456.432 45.908C456.432 47.676 455.99 51.45 453.576 51.45C450.958 51.45 450.788 47.778 450.788 45.908C450.788 43.936 450.856 40.366 453.576 40.366C456.194 40.366 456.432 44.038 456.432 45.908ZM476.866 44.922V44.004C476.866 40.06 474.826 37.442 470.712 37.442C465.884 37.442 463.776 40.468 463.776 45.058C463.776 50.396 466.19 54.374 471.936 54.374C473.466 54.374 474.996 54.204 476.458 53.728V51.11C475.506 51.45 474.384 51.722 473.364 51.722C469.692 51.722 467.278 48.356 467.278 44.922H476.866ZM473.296 42.644H467.38C467.55 41.012 468.808 39.856 470.44 39.856C472.174 39.856 473.296 40.91 473.296 42.644ZM484.444 54V30.54H480.67V54H484.444ZM498.649 49.512C498.649 44.888 491.543 43.8 491.543 41.658C491.543 40.57 493.209 40.162 494.059 40.162C495.351 40.162 496.541 40.672 497.663 41.25V38.054C496.439 37.714 495.249 37.442 493.991 37.442C490.965 37.442 488.177 38.836 488.177 42.202C488.177 46.486 495.147 48.084 495.147 49.988C495.147 51.28 493.311 51.45 492.359 51.45C490.931 51.45 489.537 51.042 488.245 50.464V53.728C489.639 54.17 491.067 54.374 492.529 54.374C495.691 54.374 498.649 53.116 498.649 49.512ZM515.891 54L509.363 44.82L515.347 37.816H510.825L505.589 44.004V30.54H501.815V54H505.589V45.84H505.657L511.369 54H515.891ZM530.084 54V42.474C530.084 38.734 527.636 37.442 524.202 37.442C520.836 37.442 518.048 38.87 518.048 42.576H521.72C521.72 40.978 522.57 40.094 524.202 40.094C526.072 40.094 526.48 41.454 526.48 43.052V44.65C522.808 44.752 517.436 45.262 517.436 50.124C517.436 52.878 519.612 54.374 522.196 54.374C523.964 54.374 525.596 53.796 526.412 52.13H526.48V54H530.084ZM526.48 46.86C526.48 48.934 525.63 51.722 523.114 51.722C521.856 51.722 521.108 51.076 521.108 49.784C521.108 47.336 524.678 46.86 526.48 46.86ZM555.803 54V42.78C555.803 39.992 554.511 37.442 551.417 37.442C549.377 37.442 547.575 38.802 546.861 40.672H546.793C546.351 38.598 544.821 37.442 542.713 37.442C540.741 37.442 539.245 38.496 538.463 40.298H538.395V37.816H534.621V54H538.395V46.996C538.395 45.126 539.211 40.978 541.659 40.978C542.033 40.978 542.475 41.012 542.747 41.284C543.393 41.896 543.325 43.97 543.325 44.752V54H547.099V46.996C547.099 45.126 547.915 40.978 550.363 40.978C550.737 40.978 551.179 41.012 551.451 41.284C552.097 41.896 552.029 43.97 552.029 44.752V54H555.803ZM581.602 54V42.78C581.602 39.992 580.31 37.442 577.216 37.442C575.176 37.442 573.374 38.802 572.66 40.672H572.592C572.15 38.598 570.62 37.442 568.512 37.442C566.54 37.442 565.044 38.496 564.262 40.298H564.194V37.816H560.42V54H564.194V46.996C564.194 45.126 565.01 40.978 567.458 40.978C567.832 40.978 568.274 41.012 568.546 41.284C569.192 41.896 569.124 43.97 569.124 44.752V54H572.898V46.996C572.898 45.126 573.714 40.978 576.162 40.978C576.536 40.978 576.978 41.012 577.25 41.284C577.896 41.896 577.828 43.97 577.828 44.752V54H581.602ZM598.323 44.922V44.004C598.323 40.06 596.283 37.442 592.169 37.442C587.341 37.442 585.233 40.468 585.233 45.058C585.233 50.396 587.647 54.374 593.393 54.374C594.923 54.374 596.453 54.204 597.915 53.728V51.11C596.963 51.45 595.841 51.722 594.821 51.722C591.149 51.722 588.735 48.356 588.735 44.922H598.323ZM594.753 42.644H588.837C589.007 41.012 590.265 39.856 591.897 39.856C593.631 39.856 594.753 40.91 594.753 42.644ZM610.967 41.386V37.442C608.247 37.442 606.989 38.564 605.731 40.808H605.663V37.816H601.889V54H605.663V46.894C605.663 43.086 607.091 41.386 610.967 41.386ZM639.101 47.506C639.101 44.14 637.333 42.032 634.035 41.522V41.454C636.585 40.468 637.945 38.938 637.945 36.048C637.945 31.968 634.885 30.54 631.281 30.54H624.073V54H631.281C635.769 54 639.101 52.606 639.101 47.506ZM633.899 36.728C633.899 39.652 632.199 40.162 629.649 40.162H628.051V33.362H629.649C632.165 33.362 633.899 33.804 633.899 36.728ZM635.055 47.166C635.055 50.532 632.471 51.178 629.649 51.178H628.051V42.984H629.649C632.539 42.984 635.055 43.8 635.055 47.166ZM651.874 41.386V37.442C649.154 37.442 647.896 38.564 646.638 40.808H646.57V37.816H642.796V54H646.57V46.894C646.57 43.086 647.998 41.386 651.874 41.386ZM666.921 44.922V44.004C666.921 40.06 664.881 37.442 660.767 37.442C655.939 37.442 653.831 40.468 653.831 45.058C653.831 50.396 656.245 54.374 661.991 54.374C663.521 54.374 665.051 54.204 666.513 53.728V51.11C665.561 51.45 664.439 51.722 663.419 51.722C659.747 51.722 657.333 48.356 657.333 44.922H666.921ZM663.351 42.644H657.435C657.605 41.012 658.863 39.856 660.495 39.856C662.229 39.856 663.351 40.91 663.351 42.644ZM691.737 54V42.78C691.737 39.992 690.445 37.442 687.351 37.442C685.311 37.442 683.509 38.802 682.795 40.672H682.727C682.285 38.598 680.755 37.442 678.647 37.442C676.675 37.442 675.179 38.496 674.397 40.298H674.329V37.816H670.555V54H674.329V46.996C674.329 45.126 675.145 40.978 677.593 40.978C677.967 40.978 678.409 41.012 678.681 41.284C679.327 41.896 679.259 43.97 679.259 44.752V54H683.033V46.996C683.033 45.126 683.849 40.978 686.297 40.978C686.671 40.978 687.113 41.012 687.385 41.284C688.031 41.896 687.963 43.97 687.963 44.752V54H691.737ZM708.458 44.922V44.004C708.458 40.06 706.418 37.442 702.304 37.442C697.476 37.442 695.368 40.468 695.368 45.058C695.368 50.396 697.782 54.374 703.528 54.374C705.058 54.374 706.588 54.204 708.05 53.728V51.11C707.098 51.45 705.976 51.722 704.956 51.722C701.284 51.722 698.87 48.356 698.87 44.922H708.458ZM704.888 42.644H698.972C699.142 41.012 700.4 39.856 702.032 39.856C703.766 39.856 704.888 40.91 704.888 42.644ZM725.114 54V42.78C725.114 39.992 723.822 37.442 720.728 37.442C718.416 37.442 716.784 38.768 715.934 40.842H715.866V37.816H712.092V54H715.866V46.996C715.866 44.82 716.954 40.978 719.674 40.978C720.048 40.978 720.49 41.012 720.762 41.284C721.408 41.896 721.34 43.97 721.34 44.752V54H725.114ZM401.73 68.818V66.744C400.812 66.54 399.894 66.438 398.976 66.438C395.61 66.438 393.672 68.206 393.672 71.572V73.816H390.952V75.754H393.672V90H395.984V75.754H400.642V73.816H395.984C395.984 71.028 395.712 68.376 399.384 68.376C400.2 68.376 400.948 68.546 401.73 68.818ZM413.917 70.62V67.628H410.857V70.62H413.917ZM407.933 70.62V67.628H404.873V70.62H407.933ZM414.869 90V73.816H412.557V80.48C412.557 83.03 411.231 88.062 408.001 88.062C405.349 88.062 405.621 84.628 405.621 82.792V73.816H403.309V85.376C403.309 87.96 404.601 90.374 407.457 90.374C410.245 90.374 411.741 88.742 412.489 86.26H412.557V90H414.869ZM428.231 75.924V73.442C425.647 73.442 423.845 74.598 422.825 76.944H422.757V73.816H420.445V90H422.757V83.302C422.757 79.766 424.049 75.924 428.231 75.924ZM453.84 83.642C453.84 80.378 452.514 78.372 449.318 77.59V77.522C451.63 76.74 452.752 74.7 452.752 72.32C452.752 68.444 450.032 66.54 446.36 66.54H440.138V90H446.36C450.542 90 453.84 88.266 453.84 83.642ZM450.1 72.49C450.1 75.788 447.924 76.672 445.068 76.672H442.79V68.75H445.442C448.026 68.75 450.1 69.464 450.1 72.49ZM451.188 83.37C451.188 86.702 448.774 87.79 445.85 87.79H442.79V78.882H446.156C448.944 78.882 451.188 80.412 451.188 83.37ZM466.016 75.924V73.442C463.432 73.442 461.63 74.598 460.61 76.944H460.542V73.816H458.23V90H460.542V83.302C460.542 79.766 461.834 75.924 466.016 75.924ZM479.834 80.378V79.596C479.834 76.026 477.964 73.442 474.19 73.442C469.43 73.442 467.866 77.148 467.866 81.364C467.866 86.6 470.144 90.374 475.754 90.374C477.012 90.374 478.27 90.272 479.46 89.898V87.994C478.372 88.266 477.386 88.436 476.264 88.436C472.286 88.436 470.518 84.866 470.518 81.33V80.378H479.834ZM477.182 78.44H470.688C471.028 76.672 472.184 75.38 474.088 75.38C475.856 75.38 477.182 76.672 477.182 78.44ZM503.816 90V78.44C503.816 75.89 502.524 73.442 499.668 73.442C497.39 73.442 495.758 75.074 495.078 77.148H495.01C494.84 74.734 493.344 73.442 490.93 73.442C488.278 73.442 487.054 75.244 486.408 77.556H486.34V73.816H484.028V90H486.34V83.336C486.34 81.092 487.428 75.754 490.386 75.754C493.038 75.754 492.766 79.188 492.766 81.024V90H495.078V83.336C495.078 81.092 496.132 75.754 499.124 75.754C501.776 75.754 501.504 79.188 501.504 81.024V90H503.816ZM520.143 80.378V79.596C520.143 76.026 518.273 73.442 514.499 73.442C509.739 73.442 508.175 77.148 508.175 81.364C508.175 86.6 510.453 90.374 516.063 90.374C517.321 90.374 518.579 90.272 519.769 89.898V87.994C518.681 88.266 517.695 88.436 516.573 88.436C512.595 88.436 510.827 84.866 510.827 81.33V80.378H520.143ZM517.491 78.44H510.997C511.337 76.672 512.493 75.38 514.397 75.38C516.165 75.38 517.491 76.672 517.491 78.44ZM535.964 90V78.44C535.964 75.89 534.672 73.442 531.816 73.442C528.994 73.442 527.566 75.074 526.75 77.556H526.682V73.816H524.37V90H526.682V83.336C526.682 80.786 528.042 75.754 531.272 75.754C533.924 75.754 533.652 79.188 533.652 81.024V90H535.964ZM561.593 90V73.816H559.281V80.48C559.281 83.03 557.955 88.062 554.725 88.062C552.073 88.062 552.345 84.628 552.345 82.792V73.816H550.033V85.376C550.033 87.96 551.325 90.374 554.181 90.374C556.969 90.374 558.465 88.742 559.213 86.26H559.281V90H561.593ZM578.763 90V78.44C578.763 75.89 577.471 73.442 574.615 73.442C571.793 73.442 570.365 75.074 569.549 77.556H569.481V73.816H567.169V90H569.481V83.336C569.481 80.786 570.841 75.754 574.071 75.754C576.723 75.754 576.451 79.188 576.451 81.024V90H578.763ZM595.117 90V66.54H592.805V76.468H592.737C592.057 74.496 590.595 73.442 588.487 73.442C584.067 73.442 582.979 78.542 582.979 82.044C582.979 85.818 583.863 90.374 588.521 90.374C590.459 90.374 592.193 89.116 592.737 87.246H592.805V90H595.117ZM592.805 81.976C592.805 84.22 591.887 88.436 588.997 88.436C586.005 88.436 585.631 84.73 585.631 82.486C585.631 80.242 585.903 75.38 589.065 75.38C592.125 75.38 592.805 79.698 592.805 81.976ZM623.209 83.642C623.209 80.378 621.883 78.372 618.687 77.59V77.522C620.999 76.74 622.121 74.7 622.121 72.32C622.121 68.444 619.401 66.54 615.729 66.54H609.507V90H615.729C619.911 90 623.209 88.266 623.209 83.642ZM619.469 72.49C619.469 75.788 617.293 76.672 614.437 76.672H612.159V68.75H614.811C617.395 68.75 619.469 69.464 619.469 72.49ZM620.557 83.37C620.557 86.702 618.143 87.79 615.219 87.79H612.159V78.882H615.525C618.313 78.882 620.557 80.412 620.557 83.37ZM635.385 75.924V73.442C632.801 73.442 630.999 74.598 629.979 76.944H629.911V73.816H627.599V90H629.911V83.302C629.911 79.766 631.203 75.924 635.385 75.924ZM649.204 80.378V79.596C649.204 76.026 647.334 73.442 643.56 73.442C638.8 73.442 637.236 77.148 637.236 81.364C637.236 86.6 639.514 90.374 645.124 90.374C646.382 90.374 647.64 90.272 648.83 89.898V87.994C647.742 88.266 646.756 88.436 645.634 88.436C641.656 88.436 639.888 84.866 639.888 81.33V80.378H649.204ZM646.552 78.44H640.058C640.398 76.672 641.554 75.38 643.458 75.38C645.226 75.38 646.552 76.672 646.552 78.44ZM673.185 90V78.44C673.185 75.89 671.893 73.442 669.037 73.442C666.759 73.442 665.127 75.074 664.447 77.148H664.379C664.209 74.734 662.713 73.442 660.299 73.442C657.647 73.442 656.423 75.244 655.777 77.556H655.709V73.816H653.397V90H655.709V83.336C655.709 81.092 656.797 75.754 659.755 75.754C662.407 75.754 662.135 79.188 662.135 81.024V90H664.447V83.336C664.447 81.092 665.501 75.754 668.493 75.754C671.145 75.754 670.873 79.188 670.873 81.024V90H673.185ZM689.512 80.378V79.596C689.512 76.026 687.642 73.442 683.868 73.442C679.108 73.442 677.544 77.148 677.544 81.364C677.544 86.6 679.822 90.374 685.432 90.374C686.69 90.374 687.948 90.272 689.138 89.898V87.994C688.05 88.266 687.064 88.436 685.942 88.436C681.964 88.436 680.196 84.866 680.196 81.33V80.378H689.512ZM686.86 78.44H680.366C680.706 76.672 681.862 75.38 683.766 75.38C685.534 75.38 686.86 76.672 686.86 78.44ZM701.526 75.924V73.442C698.942 73.442 697.14 74.598 696.12 76.944H696.052V73.816H693.74V90H696.052V83.302C696.052 79.766 697.344 75.924 701.526 75.924ZM716.058 90V78.44C716.058 75.89 714.766 73.442 711.91 73.442C709.088 73.442 707.66 75.074 706.844 77.556H706.776V66.54H704.464V90H706.776V83.336C706.776 80.786 708.136 75.754 711.366 75.754C714.018 75.754 713.746 79.188 713.746 81.024V90H716.058ZM731.8 90V78.644C731.8 75.04 730.032 73.442 726.36 73.442C723.47 73.442 720.614 74.7 720.546 77.964H723.13C723.368 76.026 724.524 75.38 726.428 75.38C729.658 75.38 729.488 77.964 729.488 80.378V80.718C728.944 80.82 728.434 80.82 727.89 80.82C724.898 80.82 720.172 82.146 720.172 85.852C720.172 88.606 721.736 90.374 724.524 90.374C726.326 90.374 728.604 89.558 729.488 87.858H729.556V90H731.8ZM729.488 82.656C729.488 84.016 729.42 84.696 728.876 85.92C728.196 87.382 726.734 88.436 725.102 88.436C723.742 88.436 722.824 87.45 722.824 86.09C722.824 83.506 726.054 82.656 728.128 82.656H729.488ZM748.694 73.816H746.212L742.064 86.6H741.996L737.236 73.816H734.754L740.874 90H743.22L748.694 73.816ZM762.559 80.378V79.596C762.559 76.026 760.689 73.442 756.915 73.442C752.155 73.442 750.591 77.148 750.591 81.364C750.591 86.6 752.869 90.374 758.479 90.374C759.737 90.374 760.995 90.272 762.185 89.898V87.994C761.097 88.266 760.111 88.436 758.989 88.436C755.011 88.436 753.243 84.866 753.243 81.33V80.378H762.559ZM759.907 78.44H753.413C753.753 76.672 754.909 75.38 756.813 75.38C758.581 75.38 759.907 76.672 759.907 78.44ZM778.38 90V78.44C778.38 75.89 777.088 73.442 774.232 73.442C771.41 73.442 769.982 75.074 769.166 77.556H769.098V73.816H766.786V90H769.098V83.336C769.098 80.786 770.458 75.754 773.688 75.754C776.34 75.754 776.068 79.188 776.068 81.024V90H778.38Z" fill="black"/>
<path fill-rule="evenodd" clip-rule="evenodd" d="M357.99 180L177.872 179.998C198.21 122.045 198.261 58.0287 177.868 0L360 0.00211668V180" fill="#003366"/>
<path fill-rule="evenodd" clip-rule="evenodd" d="M337.563 33.2232C339.001 31.6191 338.864 30.3189 337.259 30.3189H329.376C327.773 30.3189 326.968 30.1452 324.386 32.7251L302.371 56.5597L302.311 33.2232C302.311 31.6191 301.01 30.3189 299.404 30.3189H294.053C292.448 30.3189 291.145 31.6191 291.145 33.2232L291.143 86.2382C291.143 87.8403 292.444 89.1405 294.049 89.1405H299.425C301.03 89.1405 302.331 87.8403 302.331 86.2382L302.336 72.3757L312.116 61.8145L327.216 86.2382C328.199 87.8403 329.578 89.1405 331.184 89.1405H339.249C340.856 89.1405 341.361 87.8403 340.378 86.2382L319.55 53.5168L337.563 33.2232Z" fill="white"/>
<path fill-rule="evenodd" clip-rule="evenodd" d="M208.431 86.2376C208.431 87.8418 209.732 89.142 211.335 89.142H217.216C218.823 89.142 220.124 87.8418 220.124 86.2376L220.149 33.2247C220.149 31.6206 218.848 30.3203 217.243 30.3203H211.366C209.759 30.3203 208.46 31.6206 208.46 33.2247L208.431 86.2376Z" fill="white"/>
<path fill-rule="evenodd" clip-rule="evenodd" d="M267.332 33.2247C267.332 31.6206 268.633 30.3203 270.238 30.3203H276.048C277.656 30.3203 278.957 31.6206 278.957 33.2247L278.949 86.2397C278.949 87.8418 277.647 89.142 276.042 89.142H270.271C268.666 89.142 267.365 87.8418 267.365 86.2397L267.344 64.402H243.957L243.961 86.2397C243.961 87.8418 242.662 89.142 241.055 89.142H235.246C233.641 89.142 232.34 87.8418 232.34 86.2397L232.342 33.2247C232.342 31.6206 233.643 30.3203 235.248 30.3203H241.075C242.678 30.3203 243.982 31.6206 243.982 33.2247L243.957 54.5518H267.344L267.332 33.2247Z" fill="white"/>
<path fill-rule="evenodd" clip-rule="evenodd" d="M180.433 0L0 0.00211668V180L180.431 179.998C200.802 122.045 200.857 58.0287 180.433 0Z" fill="#CCD7E6"/>
<path d="M93.4965 126.406C90.3934 126.406 87.3756 125.806 84.5287 124.576C81.7956 123.404 79.3188 121.745 77.2121 119.629C75.1054 117.513 73.4257 115.026 72.2869 112.281C71.0912 109.421 70.4648 106.39 70.4648 103.274V69.6758H116.557V103.274C116.557 106.39 115.959 109.421 114.735 112.281C113.567 115.026 111.916 117.513 109.809 119.629C107.703 121.745 105.226 123.432 102.493 124.576C99.6175 125.806 96.5997 126.406 93.4965 126.406Z" fill="white"/>
<path d="M105.34 117.8C104.031 117.8 102.92 116.799 102.75 115.512L102.664 114.855H95.1483L95.0629 115.512C94.8921 116.828 93.7818 117.8 92.4722 117.8C91.0203 117.8 89.853 116.628 89.853 115.169C89.853 113.854 90.8495 112.71 92.1306 112.567L92.7854 112.482V104.532L75.0205 86.6898L80.629 81.0854L81.1699 79.4841L82.1378 78.5119L83.7891 77.9114L87.4047 74.3086L97.1412 84.1163L93.4971 87.7763L92.9562 89.3776L91.9882 90.3498L90.394 90.8931L86.7499 94.4959L94.7498 102.531H102.664L102.75 101.873C102.92 100.558 104.031 99.5856 105.34 99.5856C106.792 99.5856 107.96 100.787 107.96 102.216C107.96 103.532 106.992 104.675 105.682 104.818L105.027 104.904V112.453L105.682 112.539C106.992 112.71 107.96 113.825 107.96 115.141C107.988 116.628 106.792 117.8 105.34 117.8Z" fill="#CCD7E6"/>
<path d="M100.729 105.789L98.9068 107.648L97.0563 105.789L96.0029 106.847L97.8534 108.706L96.0029 110.536L97.0563 111.594L98.9068 109.735L100.729 111.594L101.782 110.536L99.9602 108.706L101.782 106.847L100.729 105.789Z" fill="#003366"/>
<path d="M105.341 117.084C104.288 117.084 103.462 116.227 103.462 115.197V114.139H94.352V115.197C94.352 116.227 93.4979 117.084 92.473 117.084C91.4196 117.084 90.594 116.227 90.594 115.197C90.594 114.139 91.4481 113.31 92.473 113.31H93.5264V104.217L76.0747 86.689L77.0141 85.7454L86.7791 95.5531L94.4659 103.274H103.491V102.216C103.491 101.158 104.345 100.328 105.37 100.328C106.423 100.328 107.249 101.186 107.249 102.216C107.249 103.245 106.395 104.103 105.37 104.103H104.316V113.253H105.37C106.423 113.253 107.249 114.111 107.249 115.14C107.249 116.227 106.395 117.084 105.341 117.084ZM105.797 111.823V105.59C107.448 105.389 108.729 103.96 108.729 102.244C108.729 100.386 107.22 98.8414 105.37 98.8414C103.661 98.8414 102.238 100.128 102.01 101.787H95.0637L87.804 94.4952L91.9605 90.3204L88.0603 86.4031L84.9856 89.4912L86.7507 91.264L87.804 90.2061L87.0923 89.4626L88.0603 88.4904L89.8538 90.2918L86.7507 93.4086L82.9358 89.577L92.2452 80.2268L96.0601 84.0584L92.9285 87.2037L91.1349 85.4023L92.1314 84.3729L92.8431 85.0878L93.8965 84.0298L92.1314 82.2569L89.0282 85.3737L92.9285 89.2911L98.1669 84.0298L87.3485 73.1641L82.1102 78.4825L85.982 82.3713L89.0851 79.2546L87.32 77.4818L86.2667 78.5397L86.9784 79.2546L85.982 80.2554L84.2169 78.4825L87.3485 75.3372L91.1919 79.1974L81.8824 88.5476L78.039 84.6874L81.1422 81.5707L82.9073 83.3435L81.9393 84.3157L81.2276 83.6009L80.1742 84.6588L81.9393 86.4317L85.014 83.3435L81.1422 79.4547L73.9395 86.689L92.0175 104.846V111.823C90.3663 112.052 89.0851 113.453 89.0851 115.197C89.0851 117.056 90.594 118.571 92.473 118.571C94.1812 118.571 95.6046 117.285 95.8324 115.626H102.039C102.266 117.285 103.661 118.571 105.398 118.571C107.249 118.571 108.757 117.056 108.757 115.197C108.729 113.453 107.448 112.023 105.797 111.823Z" fill="#003366"/>
<path d="M95.7458 22.236C95.6888 21.5783 95.4895 20.9492 95.1479 20.4631C94.7209 19.8341 94.123 19.5195 93.4967 19.5195C92.8704 19.5195 92.2725 19.8627 91.8455 20.4631C91.5038 20.9492 91.3045 21.5783 91.2476 22.236C88.6569 22.3789 86.4648 23.008 85.0698 23.5227C83.7032 24.0374 82.8207 24.5235 82.5645 24.6664C82.6214 24.7808 82.6499 24.8952 82.7068 25.0382C82.9061 25.6958 83.3901 26.3249 84.1018 26.8968C84.2157 26.9826 84.3011 27.0683 84.415 27.1541C86.2939 26.0104 89.1693 25.2669 92.3294 25.1239C92.6995 25.0954 93.0981 25.0954 93.4682 25.0954H93.5252C93.8953 25.0954 94.2938 25.0954 94.6639 25.1239C97.7956 25.2669 100.671 26.0104 102.578 27.1541C102.692 27.0683 102.806 26.9826 102.892 26.8968C103.603 26.3249 104.087 25.6958 104.287 25.0382C104.315 24.9238 104.372 24.8094 104.429 24.6664C104.201 24.5235 103.319 24.0374 101.924 23.5227C100.529 23.0366 98.3365 22.4075 95.7458 22.236Z" fill="white"/>
<path d="M107.191 19.2649C106.251 19.2077 105.283 19.0075 104.543 18.4929C104.543 18.4929 104.23 22.2101 102.379 21.3808C100.728 20.6374 103.49 18.1497 103.49 18.1497C102.18 17.5778 102.18 15.6906 102.18 15.6906C102.18 15.6906 100.984 17.2633 98.963 17.0632C98.963 17.0632 100.102 20.8376 97.7673 20.4944C94.835 20.0655 97.9096 16.863 97.9096 16.863C94.8634 16.2625 93.7531 13.7748 93.4969 13.1172C93.2407 13.7748 92.1304 16.2625 89.0841 16.863C89.0841 16.863 92.1588 20.0369 89.2265 20.4944C86.892 20.8376 88.0308 17.0632 88.0308 17.0632C86.0095 17.2347 84.8137 15.6906 84.8137 15.6906C84.8137 15.6906 84.8137 17.6064 83.5042 18.1497C83.5042 18.1497 86.2657 20.6374 84.6145 21.3808C82.764 22.2101 82.4508 18.4929 82.4508 18.4929C81.7106 18.979 80.7142 19.2077 79.8031 19.2649C78.2943 19.3507 76.9277 19.0647 76.9277 19.0647C76.9277 19.0647 81.7106 21.9241 82.707 25.0409C82.707 25.0409 86.3796 22.8105 91.6179 22.6104C91.6179 21.1235 92.472 19.894 93.4969 19.894C94.5503 19.894 95.3759 21.0949 95.3759 22.6104C100.586 22.8105 104.287 25.0409 104.287 25.0409C105.283 21.9527 110.066 19.0647 110.066 19.0647C110.066 19.0647 108.7 19.3793 107.191 19.2649Z" fill="#003366"/>
<path d="M94.6941 24.7239C94.324 24.6953 93.9254 24.6953 93.5269 24.6953C93.5269 24.6953 93.5269 24.6953 93.4984 24.6953H93.4699C93.0714 24.6953 92.7013 24.6953 92.3027 24.7239C88.9433 24.8669 85.9825 25.6961 84.1035 26.8685C84.6444 27.2974 85.3562 27.7263 86.1818 28.0694C88.0323 28.8414 90.5091 29.3275 93.4699 29.3275H93.4984C93.4984 29.3275 93.4984 29.3275 93.5269 29.3275C96.4877 29.3275 98.9645 28.8414 100.815 28.0694C101.641 27.7263 102.324 27.326 102.893 26.8685C101.014 25.6961 98.0535 24.8955 94.6941 24.7239Z" fill="#003366"/>
<path d="M78.0664 46.8575L78.0094 46.5716L77.7247 46.543C77.6393 46.543 77.5539 46.543 77.4685 46.543C75.9312 46.543 73.8244 47.8583 71.6038 49.2594C69.9526 50.3174 68.2444 51.4039 66.7356 51.9186L66.1377 52.1474L66.6217 52.5763C66.6786 52.6335 67.1626 53.0338 68.1021 53.0338C68.4722 53.0338 68.8708 52.9766 69.2693 52.8336C69.4971 52.7765 69.8957 52.6049 70.4081 52.3475C71.9739 51.6327 74.5931 50.4603 77.1838 50.1172L77.3546 50.0886L77.44 49.9457C78.3511 48.5731 78.0664 46.9433 78.0664 46.8575Z" fill="white"/>
<path d="M72.8005 40.9102C73.6261 41.5392 74.4802 41.4535 74.5086 41.4535C75.6474 41.4535 76.2168 40.853 76.473 40.3669C76.7577 39.8522 76.8431 39.2803 76.8431 38.88C76.8431 38.5655 76.6438 38.1652 76.1314 38.108C75.9606 38.0794 75.2204 38.0508 74.4517 38.0508C72.8005 38.0508 72.5727 38.1652 72.4588 38.2223C72.2026 38.3653 72.0033 38.6798 71.9748 39.0516C71.9179 39.7092 72.345 40.567 72.8005 40.9102Z" fill="white"/>
<path d="M77.3274 45.9129L77.9537 46.0844L77.7829 45.4554C77.7544 45.3696 77.242 43.4824 74.452 42.4244C72.5445 41.7096 71.605 40.8517 71.1495 40.2799C70.694 39.6794 70.6371 39.2505 70.6371 39.2219V38.8788L70.2955 38.8502C69.8969 38.8216 69.4983 38.793 69.0997 38.793C67.5339 38.793 64.687 39.0789 63.1496 40.9661C62.2102 42.1099 61.9255 43.6539 62.2956 45.5697L62.4379 46.3418L62.9504 45.7413C63.9753 44.5118 64.9432 43.8541 67.1638 43.8541C69.299 43.8541 72.5161 44.5118 77.3274 45.9129Z" fill="white"/>
<path d="M108.956 46.8575L109.013 46.5716L109.298 46.543C109.383 46.543 109.468 46.543 109.554 46.543C111.091 46.543 113.198 47.8583 115.419 49.2594C117.07 50.3174 118.778 51.4039 120.287 51.9186L120.885 52.1474L120.401 52.5763C120.344 52.6335 119.86 53.0338 118.92 53.0338C118.55 53.0338 118.152 52.9766 117.753 52.8336C117.525 52.7765 117.127 52.6049 116.614 52.3475C115.048 51.6327 112.429 50.4603 109.839 50.1172L109.668 50.0886L109.582 49.9457C108.643 48.5731 108.928 46.9433 108.956 46.8575Z" fill="white"/>
<path d="M114.195 40.9102C113.369 41.5392 112.515 41.4535 112.487 41.4535C111.348 41.4535 110.779 40.853 110.522 40.3669C110.238 39.8522 110.152 39.2803 110.152 38.88C110.152 38.5655 110.352 38.1652 110.864 38.108C111.035 38.0794 111.775 38.0508 112.544 38.0508C114.195 38.0508 114.423 38.1652 114.537 38.2223C114.793 38.3653 114.992 38.6798 115.021 39.0516C115.078 39.7092 114.679 40.567 114.195 40.9102Z" fill="white"/>
<path d="M109.667 45.9129L109.041 46.0844L109.212 45.4554C109.24 45.3696 109.753 43.4824 112.543 42.4244C114.45 41.7096 115.39 40.8517 115.845 40.2799C116.301 39.6794 116.329 39.2505 116.358 39.2219V38.8788L116.699 38.8502C117.098 38.8216 117.496 38.793 117.895 38.793C119.461 38.793 122.308 39.0789 123.845 40.9661C124.785 42.1099 125.069 43.6539 124.699 45.5697L124.557 46.3418L124.044 45.7413C123.019 44.5118 122.052 43.8541 119.831 43.8541C117.696 43.8541 114.479 44.5118 109.667 45.9129Z" fill="white"/>
<path d="M115.419 103.272C115.419 115.424 105.597 125.289 93.4974 125.289C81.3979 125.289 71.576 115.424 71.576 103.272V70.7889H93.4974H115.419V103.272ZM69.1561 52.4601C67.5903 52.9176 66.8501 52.26 66.8501 52.26C70.4942 50.9732 75.1631 46.6556 77.6684 46.9129C77.6684 46.9129 77.9531 48.457 77.1275 49.7437C73.6258 50.2298 70.0102 52.2314 69.1561 52.4601ZM62.6936 45.5118C61.6117 39.9932 66.5939 38.9352 70.2949 39.2497C70.2949 39.2497 70.3518 41.3085 74.3375 42.7954C76.9567 43.7676 77.4407 45.569 77.4407 45.569C66.5939 42.3951 64.5725 43.2529 62.6936 45.5118ZM72.6578 38.5921C73.0279 38.3919 75.8179 38.4491 76.1026 38.5063C76.4443 38.5349 76.5012 38.7922 76.4727 38.878C76.4443 39.4213 76.2734 41.0797 74.4799 41.1083C74.3091 41.1083 74.1667 41.1083 74.0244 41.0797C74.1952 40.851 74.3091 40.5079 74.3091 40.1075C74.3091 39.1639 73.9674 38.8494 73.6258 38.8494C73.2842 38.8494 72.971 39.4213 72.971 40.0789C72.971 40.2791 72.9995 40.4793 73.0564 40.6508C72.06 39.7358 72.3162 38.7636 72.6578 38.5921ZM109.326 46.9415C111.832 46.6842 116.529 51.0018 120.145 52.2886C120.145 52.2886 119.404 52.9462 117.839 52.4887C116.985 52.2314 113.397 50.2298 109.839 49.7723C109.042 48.4856 109.326 46.9415 109.326 46.9415ZM112.657 42.7954C116.643 41.3085 116.7 39.2497 116.7 39.2497C120.401 38.9352 125.383 39.9932 124.301 45.5118C122.394 43.2529 120.401 42.3951 109.554 45.5404C109.583 45.5404 110.038 43.7676 112.657 42.7954ZM110.892 38.5063C111.177 38.4777 113.967 38.3919 114.337 38.5921C114.679 38.7922 114.935 39.7358 113.938 40.6508C113.995 40.4793 114.024 40.2791 114.024 40.0789C114.024 39.3927 113.739 38.8494 113.369 38.8494C112.999 38.8494 112.686 39.1925 112.686 40.1075C112.686 40.5079 112.8 40.851 112.97 41.0797C112.828 41.1083 112.686 41.1083 112.515 41.1083C110.721 41.0797 110.551 39.4499 110.522 38.878C110.522 38.7636 110.551 38.5349 110.892 38.5063ZM140.956 93.3495C145.853 92.8634 152.771 93.5783 157.126 91.5195C160.343 90.004 160.657 85.9151 160.116 84.5426C159.774 83.6847 159.319 83.8849 159.091 84.0279C154.45 86.9444 146.365 88.4599 141.981 89.0032C140.443 89.1748 139.675 86.7443 141.781 86.2582C143.347 85.8865 146.023 85.6005 149.354 84.3424C162.109 79.4242 159.29 74.1344 158.493 72.7904C158.094 72.1042 157.61 72.4473 157.44 72.5903C150.778 78.6522 143.888 81.1685 141.411 82.2836C139.902 82.9699 138.735 80.8253 140.329 79.9675C142.522 78.7952 149.126 76.4219 154.023 69.5593C157.041 65.3274 154.82 62.2679 152.913 61.0955C152.6 60.8954 152.23 61.0097 152.059 61.3815C147.845 71.0748 139.703 75.9072 138.878 76.2789C137.426 76.9366 136.458 75.1066 137.653 74.1058C138.621 73.2765 145.682 68.0152 148.699 59.4942C150.635 54.0614 147.76 52.0026 146.166 51.4593C145.767 51.3164 145.482 51.6309 145.454 51.8597C143.717 62.7254 136.714 70.4743 135.604 71.2178C134.408 72.0184 133.127 70.7031 134.152 69.5021C135.233 68.1868 142.265 56.7778 142.465 49.4864C142.55 46.1981 140.244 44.797 139.105 44.3109C138.707 44.1393 138.365 44.511 138.365 44.7112C136.913 58.5506 132.557 66.5284 131.931 67.3004C131.618 67.6721 131.048 67.8151 130.536 67.5006C129.938 67.1002 130.052 66.3854 130.223 65.8707C131.846 61.553 135.974 51.1162 134.266 44.1107C133.383 40.4507 131.048 40.0789 129.853 40.0789C129.483 40.0789 129.283 40.3935 129.283 40.6508C129.283 43.3387 128.543 59.4085 124.444 64.441C123.362 65.7849 122.764 67.5863 124.216 68.8445C127.661 71.7896 129.54 75.8214 126.607 77.0223C124.216 77.9945 121.91 72.4759 120.657 70.7031C119.034 68.387 117.127 66.128 113.198 63.7833C112.629 63.4402 111.547 62.8969 110.693 61.1527C109.953 59.6372 109.953 52.9462 109.896 50.8017C111.946 51.0018 114.28 51.7453 116.131 52.6603C119.661 54.4045 121.54 52.2886 121.54 52.2886C117.981 51.1734 114.963 48.4284 113.255 47.4562C113.084 47.3418 113.113 47.256 113.198 47.1988C114.394 46.4554 118.437 49.0289 121.113 45.8263C121.113 45.8263 120.031 46.4554 117.241 46.2552C116.074 46.1695 115.561 45.7977 114.394 45.6262C120.031 43.453 122.451 44.4538 124.472 47.3132C127.262 40.1361 121.597 37.82 116.529 37.9344C116.102 37.0194 115.106 35.1608 112.629 34.9892C109.896 34.7891 101.611 36.2474 97.54 34.5889C97.3408 34.5031 97.0561 34.3316 97.1699 34.8177C97.3123 35.3895 97.8532 36.2188 98.5934 36.8764C98.7642 37.0194 98.6788 37.1338 98.6219 37.2196C96.9137 40.0504 95.0632 45.5976 95.7749 60.4378C95.9458 63.8405 95.0347 65.213 93.4405 65.213C91.8462 65.213 90.9352 63.8405 91.106 60.4378C91.8177 45.5976 89.9672 40.0504 88.259 37.2196C88.2306 37.1624 88.1452 37.048 88.316 36.8764C89.0277 36.2188 89.5971 35.3895 89.7394 34.8177C89.8533 34.3602 89.5401 34.5317 89.3693 34.5889C85.2982 36.2474 77.0136 34.7891 74.2806 34.9892C71.8038 35.1608 70.8073 37.0194 70.3803 37.9344C65.3127 37.82 59.6758 40.1075 62.4373 47.3132C64.4587 44.4824 66.8501 43.4816 72.5155 45.6262C71.3482 45.7977 70.8643 46.1695 69.6686 46.2552C66.8501 46.484 65.7967 45.8263 65.7967 45.8263C68.4728 49.0003 72.5155 46.4554 73.7112 47.1988C73.7966 47.256 73.8251 47.3418 73.6543 47.4562C71.9461 48.4284 68.9283 51.1734 65.3697 52.2886C65.3697 52.2886 67.2771 54.4045 70.7789 52.6603C72.6294 51.7453 74.9638 51.0304 77.0136 50.8017C76.9567 52.9748 76.9282 59.6372 76.2165 61.1527C75.3909 62.8969 74.2806 63.4402 73.7112 63.7833C69.8109 66.1566 67.875 68.4156 66.2522 70.7031C65.028 72.4759 62.722 77.9945 60.3021 77.0223C57.3698 75.8214 59.2772 71.7896 62.6936 68.8445C64.1455 67.6149 63.5476 65.7849 62.4658 64.441C58.3662 59.4085 57.626 43.3387 57.626 40.6508C57.626 40.3935 57.4267 40.0789 57.0566 40.0789C55.8609 40.0789 53.5549 40.4221 52.6439 44.1107C50.9357 51.1448 55.0638 61.553 56.6865 65.8707C56.8858 66.3854 56.9712 67.1288 56.3734 67.5006C55.8609 67.8151 55.2915 67.6721 54.9784 67.3004C54.352 66.5284 49.9962 58.5221 48.5443 44.7112C48.5158 44.511 48.2027 44.1393 47.8041 44.3109C46.6368 44.797 44.3308 46.1981 44.4447 49.4864C44.644 56.7778 51.6759 68.2154 52.7578 69.5021C53.7542 70.7031 52.4731 72.0184 51.3058 71.2178C50.1955 70.4743 43.1921 62.7254 41.4554 51.8597C41.427 51.6309 41.1138 51.3164 40.7437 51.4593C39.1779 52.0026 36.3025 54.0614 38.2099 59.4942C41.2277 68.0438 48.2881 73.2765 49.256 74.1058C50.4517 75.1066 49.4553 76.9652 48.0318 76.2789C47.2062 75.9072 39.0925 71.1034 34.8505 61.3815C34.6797 61.0097 34.3096 60.8954 33.9965 61.0955C32.089 62.2679 29.8684 65.2988 32.8862 69.5593C37.7829 76.4219 44.3878 78.7952 46.5799 79.9675C48.2027 80.8253 47.0069 82.9699 45.4981 82.2836C43.0212 81.1685 36.1317 78.6522 29.4698 72.5903C29.299 72.4473 28.815 72.1042 28.4165 72.7904C27.6193 74.1344 24.8009 79.4528 37.5551 84.3424C40.886 85.6291 43.5622 85.8865 45.128 86.2582C47.2347 86.7443 46.466 89.2034 44.9287 89.0032C40.5444 88.4599 32.4306 86.973 27.8186 84.0279C27.5909 83.8849 27.1069 83.7133 26.7937 84.5426C26.2528 85.9151 26.566 89.9754 29.783 91.5195C34.1388 93.5783 41.0569 92.892 45.9536 93.3495C48.1173 93.5497 47.6048 96.1231 46.1529 96.2375C44.3878 96.3805 35.4199 97.0381 30.1246 95.5512C29.8115 95.4655 29.2136 95.2939 29.0428 96.0087C28.6727 97.5814 30.4947 101.013 33.6833 101.67C38.2953 102.614 46.1529 100.355 48.9713 100.355C50.3948 100.355 50.7934 102.185 49.6831 102.871C48.9998 103.3 42.5942 105.159 35.5907 105.016C35.363 105.016 34.6512 105.187 35.0783 106.303C35.79 108.133 38.0676 110.992 43.1636 109.677C47.1208 108.676 51.0781 106.932 53.1848 106.531C54.7506 106.245 55.3769 108.333 53.9535 108.962C52.7293 109.505 49.7969 110.792 43.3059 112.307C42.822 112.422 41.8255 112.793 43.733 114.48C45.9251 116.453 47.7187 116.282 50.5087 115.424C53.1279 114.595 56.1741 112.222 58.0246 111.507C59.4481 110.963 60.3021 112.793 59.1634 113.623C57.5121 114.824 54.6083 116.339 51.619 117.969C51.4197 118.083 51.0496 118.569 51.9037 119.284C53.1563 120.314 55.8894 121.286 58.9356 118.283C59.7612 117.454 61.4124 116.053 62.1811 115.31C63.3199 114.223 64.9142 115.824 63.69 116.968C62.6082 117.997 61.2701 119.284 58.8787 121.772C58.7363 121.915 58.6794 122.487 59.3626 122.715C60.8146 123.144 63.2629 123.402 64.6579 120.914C66.5369 117.511 69.4408 117.912 70.0956 118.341C71.9746 119.599 72.5724 122.887 67.1917 128.177C67.0778 128.291 67.1348 128.52 67.391 128.463C67.9889 128.349 68.8714 128.263 70.0671 128.634C70.3518 128.72 70.2664 128.777 70.2095 128.978C67.1063 136.755 63.4622 137.642 60.5868 136.412C56.8573 134.811 53.0424 133.495 51.7044 133.324C47.4055 132.809 49.6261 137.842 49.6261 137.842C49.6261 137.842 49.8823 135.983 51.2489 135.954C52.4446 135.926 55.8324 136.984 57.8538 137.985C58.1669 138.156 58.4232 138.471 57.7968 138.785C56.715 139.3 50.3663 139.128 49.4553 139.529C46.039 141.101 49.5977 144.275 49.5977 144.275C49.5977 144.275 49.1991 141.788 51.7044 141.73C52.103 141.73 56.4303 141.53 58.6794 141.359C59.9036 141.273 59.7612 142.36 58.9071 142.96C57.142 144.19 52.5015 144.847 51.1635 145.819C50.1955 146.534 49.6831 148.908 52.3877 149.994C52.3877 149.994 50.708 146.906 60.416 145.705C62.7505 145.419 64.6295 143.16 66.6223 142.417C68.4728 141.702 74.4229 141.559 73.5973 144.447C73.5973 144.447 76.4158 141.445 73.3696 139.9C71.4337 138.9 69.1276 139.815 68.9283 138.442C68.7575 137.27 73.6543 131.551 74.5937 130.464C74.7076 130.321 74.7361 130.264 74.9638 130.379C76.4158 131.036 77.1275 132.094 77.6684 133.295C77.7823 133.553 78.0955 133.696 78.1524 133.238C78.6364 130.207 79.889 127.891 81.3979 126.776C82.5652 125.918 85.0705 126.204 84.6719 128.634C83.7609 133.924 72.7148 145.619 80.9424 153.654C81.3979 154.112 81.4264 153.769 81.4264 153.483C81.4264 151.452 81.6826 146.105 86.864 132.723C87.4619 131.208 88.9423 131.808 88.4298 133.238C86.864 137.699 79.8606 155.742 87.348 159.802C87.5758 159.945 87.8889 160.202 87.9174 159.344C88.1167 151.881 88.9708 142.016 90.8497 135.84C91.1629 134.868 92.017 135.097 91.8177 136.155C90.7928 141.902 89.3124 163.805 93.4405 163.805C97.5685 163.805 96.0881 141.931 95.0632 136.155C94.8639 135.125 95.7465 134.868 96.0312 135.84C97.9101 142.016 98.7642 151.881 98.9635 159.344C98.992 160.174 99.2767 159.916 99.5329 159.802C107.02 155.742 100.017 137.67 98.4511 133.238C97.9386 131.78 99.419 131.179 100.017 132.723C105.17 146.105 105.455 151.452 105.455 153.483C105.455 153.769 105.483 154.112 105.938 153.654C114.166 145.619 103.12 133.924 102.209 128.634C101.782 126.175 104.316 125.889 105.483 126.776C106.992 127.891 108.245 130.207 108.728 133.238C108.814 133.696 109.099 133.581 109.212 133.295C109.753 132.094 110.494 131.036 111.946 130.379C112.173 130.293 112.202 130.35 112.316 130.464C113.255 131.522 118.18 137.27 117.981 138.442C117.753 139.843 115.476 138.928 113.54 139.9C110.494 141.445 113.312 144.447 113.312 144.447C112.486 141.559 118.437 141.702 120.287 142.417C122.251 143.189 124.159 145.419 126.493 145.705C136.201 146.906 134.522 149.994 134.522 149.994C137.198 148.936 136.714 146.534 135.717 145.819C134.379 144.847 129.739 144.161 127.974 142.96C127.091 142.36 126.977 141.244 128.202 141.359C130.451 141.53 134.806 141.73 135.177 141.73C137.682 141.788 137.283 144.275 137.283 144.275C137.283 144.275 140.813 141.101 137.426 139.529C136.543 139.128 130.166 139.3 129.084 138.785C128.429 138.471 128.686 138.156 129.027 137.985C131.048 136.984 134.436 135.926 135.632 135.954C136.999 136.012 137.255 137.842 137.255 137.842C137.255 137.842 139.475 132.809 135.177 133.324C133.838 133.495 130.024 134.811 126.294 136.412C123.419 137.642 119.775 136.755 116.671 128.978C116.586 128.777 116.529 128.72 116.785 128.634C117.981 128.291 118.864 128.349 119.461 128.463C119.718 128.52 119.775 128.291 119.661 128.177C114.28 122.887 114.849 119.599 116.728 118.341C117.383 117.912 120.259 117.511 122.166 120.914C123.561 123.402 125.981 123.144 127.461 122.715C128.145 122.515 128.088 121.943 127.945 121.772C125.554 119.284 124.216 117.997 123.134 116.968C121.938 115.824 123.533 114.223 124.643 115.31C125.412 116.053 127.063 117.454 127.888 118.283C130.935 121.286 133.668 120.314 134.92 119.284C135.774 118.598 135.404 118.083 135.205 117.969C132.216 116.339 129.312 114.824 127.661 113.623C126.493 112.765 127.347 110.963 128.799 111.507C130.65 112.222 133.696 114.595 136.315 115.424C139.105 116.31 140.899 116.453 143.091 114.48C144.97 112.793 144.002 112.422 143.518 112.307C137.027 110.792 134.066 109.505 132.871 108.962C131.447 108.333 132.073 106.245 133.639 106.531C135.746 106.932 139.703 108.676 143.66 109.677C148.785 110.992 151.034 108.133 151.746 106.303C152.173 105.187 151.461 105.016 151.233 105.016C144.201 105.159 137.824 103.3 137.141 102.871C136.031 102.185 136.429 100.355 137.853 100.355C140.671 100.355 148.529 102.643 153.141 101.67C156.329 101.013 158.18 97.5528 157.781 96.0087C157.61 95.2653 157.013 95.4655 156.699 95.5512C151.404 97.0381 142.436 96.3805 140.671 96.2375C139.276 96.1231 138.792 93.5782 140.956 93.3495Z" fill="#003366"/>
</g>
<defs>
<clipPath id="clip0">
<rect width="782" height="180" fill="white"/>
</clipPath>
</defs>
</svg>
